<svg width="38" height="35" viewBox="0 0 38 35" fill="none" xmlns="http://www.w3.org/2000/svg">
<mask id="path-1-inside-1_14_59" fill="white">
<path d="M0 5C0 2.23858 2.23858 0 5 0H33C35.7614 0 38 2.23858 38 5V35H0V5Z"/>
</mask>
<path d="M-1 5C-1 1.68629 1.68629 -1 5 -1H33C36.3137 -1 39 1.68629 39 5H37C37 2.79086 35.2091 1 33 1H5C2.79086 1 1 2.79086 1 5H-1ZM38 35H0H38ZM-1 35V5C-1 1.68629 1.68629 -1 5 -1V1C2.79086 1 1 2.79086 1 5V35H-1ZM33 -1C36.3137 -1 39 1.68629 39 5V35H37V5C37 2.79086 35.2091 1 33 1V-1Z" fill="#F2F2F7" mask="url(#path-1-inside-1_14_59)"/>
</svg>
