<svg width="34" height="13" viewBox="0 0 34 13" fill="none" xmlns="http://www.w3.org/2000/svg">
<path d="M31 0C32.6569 4.50979e-07 34 1.34315 34 3V10C34 11.6569 32.6569 13 31 13H3C1.34315 13 8.05333e-09 11.6569 0 10V3C0 1.34315 1.34315 4.0266e-08 3 0H31ZM1.5 6C1.22386 6 1 6.22386 1 6.5C1 6.77614 1.22386 7 1.5 7H6.5C6.77614 7 7 6.77614 7 6.5C7 6.22386 6.77614 6 6.5 6H1.5ZM27.5 6C27.2239 6 27 6.22386 27 6.5C27 6.77614 27.2239 7 27.5 7H32.5C32.7761 7 33 6.77614 33 6.5C33 6.22386 32.7761 6 32.5 6H27.5Z" fill="white"/>
</svg>
