<svg width="38" height="35" viewBox="0 0 38 35" fill="none" xmlns="http://www.w3.org/2000/svg">
<mask id="path-1-inside-1_14_72" fill="white">
<path d="M0 30C0 32.7614 2.23858 35 5 35H33C35.7614 35 38 32.7614 38 30V0H0V30Z"/>
</mask>
<path d="M-1 30C-1 33.3137 1.68629 36 5 36H33C36.3137 36 39 33.3137 39 30H37C37 32.2091 35.2091 34 33 34H5C2.79086 34 1 32.2091 1 30H-1ZM38 0H0H38ZM-1 0V30C-1 33.3137 1.68629 36 5 36V34C2.79086 34 1 32.2091 1 30V0H-1ZM33 36C36.3137 36 39 33.3137 39 30V0H37V30C37 32.2091 35.2091 34 33 34V36Z" fill="#F2F2F7" mask="url(#path-1-inside-1_14_72)"/>
</svg>
